<svg version="1.1" xmlns="http://www.w3.org/2000/svg" viewBox="0 0 35.688623853471654 35.47371119794661" width="35.688623853471654" height="35.47371119794661" filter="invert(93%) hue-rotate(180deg)"><!-- svg-source:excalidraw --><metadata></metadata><defs><style class="style-fonts">
      </style></defs><rect x="0" y="0" width="35.688623853471654" height="35.47371119794661" fill="transparent"></rect><g stroke-linecap="round"><g transform="translate(25.688623853471654 17.844311926737646) rotate(0 -3.4923306523141946 0.02686408194131218)"><path d="M0 0 C-1.16 0.01, -5.82 0.04, -6.98 0.05 M0 0 C-1.16 0.01, -5.82 0.04, -6.98 0.05" stroke="#da77f2" stroke-width="4" fill="none"></path></g></g><mask></mask><g stroke-linecap="round"><g transform="translate(17.951768254499257 17.683127435091592) rotate(0 0.05372816388171486 -3.841563717545796)"><path d="M0 0 C0.02 -1.28, 0.09 -6.4, 0.11 -7.68 M0 0 C0.02 -1.28, 0.09 -6.4, 0.11 -7.68" stroke="#da77f2" stroke-width="4" fill="none"></path></g></g><mask></mask><g stroke-linecap="round"><g transform="translate(17.414486615682108 18.381593565554795) rotate(0 -3.707243307841054 3.5460588161959095)"><path d="M0 0 C-1.24 1.18, -6.18 5.91, -7.41 7.09 M0 0 C-1.24 1.18, -6.18 5.91, -7.41 7.09" stroke="#da77f2" stroke-width="4" fill="none"></path></g></g><mask></mask></svg>