<svg version="1.1" xmlns="http://www.w3.org/2000/svg" viewBox="0 0 44.565622564328805 32.99967404055678" width="44.565622564328805" height="32.99967404055678" filter="invert(93%) hue-rotate(180deg)"><!-- svg-source:excalidraw --><metadata></metadata><defs><style class="style-fonts">
      </style></defs><rect x="0" y="0" width="44.565622564328805" height="32.99967404055678" fill="transparent"></rect><g stroke-linecap="round"><g transform="translate(10 22.622893357469366) rotate(0 6.057843077916004 -6.154277525743055)"><path d="M0 0 C2.02 -2.05, 10.1 -10.26, 12.12 -12.31 M0 0 C2.02 -2.05, 10.1 -10.26, 12.12 -12.31" stroke="#be4bdb" stroke-width="4" fill="none"></path></g></g><mask></mask><g stroke-linecap="round"><g transform="translate(22.30443090078552 10.286886864721964) rotate(0 5.747628922634249 6.35639358791741)"><path d="M0 0 C1.92 2.12, 9.58 10.59, 11.5 12.71 M0 0 C1.92 2.12, 9.58 10.59, 11.5 12.71" stroke="#be4bdb" stroke-width="4" fill="none"></path></g></g><mask></mask><g stroke-linecap="round"><g transform="translate(22.375121579290862 10.113929915747576) rotate(0 6.095250492518971 -0.05696495787378808)"><path d="M0 0 C2.03 -0.02, 10.16 -0.09, 12.19 -0.11 M0 0 C2.03 -0.02, 10.16 -0.09, 12.19 -0.11" stroke="#be4bdb" stroke-width="4" fill="none"></path></g></g><mask></mask></svg>