<svg version="1.1" xmlns="http://www.w3.org/2000/svg" viewBox="0 0 37.856173576261426 55.88192581867588" width="37.856173576261426" height="55.88192581867588" filter="invert(93%) hue-rotate(180deg)"><!-- svg-source:excalidraw --><metadata></metadata><defs><style class="style-fonts">
      </style></defs><rect x="0" y="0" width="37.856173576261426" height="55.88192581867588" fill="transparent"></rect><g stroke-linecap="round"><g transform="translate(10.096079604092665 10.074993952172008) rotate(0 -0.048039802046332625 17.843143961133137)"><path d="M0 0 C-0.02 5.95, -0.08 29.74, -0.1 35.69 M0 0 C-0.02 5.95, -0.08 29.74, -0.1 35.69" stroke="#da77f2" stroke-width="4" fill="none"></path></g></g><mask></mask><g stroke-linecap="round"><g transform="translate(10.367118954452962 45.88192581867588) rotate(0 8.744527310904232 -9.075759406015095)"><path d="M0 0 C2.91 -3.03, 14.57 -15.13, 17.49 -18.15 M0 0 C2.91 -3.03, 14.57 -15.13, 17.49 -18.15" stroke="#da77f2" stroke-width="4" fill="none"></path></g></g><mask></mask><g stroke-linecap="round"><g transform="translate(27.69171823304714 27.736571386119977) rotate(0 -8.44030729483893 -8.868285693059988)"><path d="M0 0 C-2.81 -2.96, -14.07 -14.78, -16.88 -17.74 M0 0 C-2.81 -2.96, -14.07 -14.78, -16.88 -17.74" stroke="#da77f2" stroke-width="4" fill="none"></path></g></g><mask></mask></svg>