<svg version="1.1" xmlns="http://www.w3.org/2000/svg" viewBox="0 0 33.61920193969854 32.87489557068511" width="33.61920193969854" height="32.87489557068511" filter="invert(93%) hue-rotate(180deg)"><!-- svg-source:excalidraw --><metadata></metadata><defs><style class="style-fonts">
      </style></defs><rect x="0" y="0" width="33.61920193969854" height="32.87489557068511" fill="transparent"></rect><g stroke-linecap="round"><g transform="translate(10.062847900073393 10) rotate(0 6.591494104443882 0.07754698946428107)"><path d="M0 0 C2.2 0.03, 10.99 0.13, 13.18 0.16 M0 0 C2.2 0.03, 10.99 0.13, 13.18 0.16" stroke="#be4bdb" stroke-width="4" fill="none"></path></g></g><mask></mask><g stroke-linecap="round"><g transform="translate(10.064943219731504 22.71980159175655) rotate(0 6.591494104443882 0.07754698946428107)"><path d="M0 0 C2.2 0.03, 10.99 0.13, 13.18 0.16 M0 0 C2.2 0.03, 10.99 0.13, 13.18 0.16" stroke="#be4bdb" stroke-width="4" fill="none"></path></g></g><mask></mask><g stroke-linecap="round"><g transform="translate(10.061569802692247 22.34233146978113) rotate(0 -0.03078490134612366 -6.003072562272791)"><path d="M0 0 C-0.01 -2, -0.05 -10.01, -0.06 -12.01 M0 0 C-0.01 -2, -0.05 -10.01, -0.06 -12.01" stroke="#be4bdb" stroke-width="4" fill="none"></path></g></g><mask></mask><g stroke-linecap="round"><g transform="translate(23.61920193969854 22.619530581449) rotate(0 -0.03078490134612366 -6.003072562272791)"><path d="M0 0 C-0.01 -2, -0.05 -10.01, -0.06 -12.01 M0 0 C-0.01 -2, -0.05 -10.01, -0.06 -12.01" stroke="#be4bdb" stroke-width="4" fill="none"></path></g></g><mask></mask></svg>