<svg version="1.1" xmlns="http://www.w3.org/2000/svg" viewBox="0 0 43.26994793742597 31.93349159556601" width="43.26994793742597" height="31.93349159556601" filter="invert(93%) hue-rotate(180deg)"><!-- svg-source:excalidraw --><metadata></metadata><defs><style class="style-fonts">
      </style></defs><rect x="0" y="0" width="43.26994793742597" height="31.93349159556601" fill="transparent"></rect><g stroke-linecap="round"><g transform="translate(10 21.93349159556601) rotate(0 5.9346763464072865 -0.0040086814215101185)"><path d="M0 0 C1.98 0, 9.89 -0.01, 11.87 -0.01 M0 0 C1.98 0, 9.89 -0.01, 11.87 -0.01" stroke="#be4bdb" stroke-width="4" fill="none"></path></g></g><mask></mask><g stroke-linecap="round"><g transform="translate(22.043601195589872 21.900245367580283) rotate(0 5.613173370918048 -5.950122683790141)"><path d="M0 0 C1.87 -1.98, 9.36 -9.92, 11.23 -11.9 M0 0 C1.87 -1.98, 9.36 -9.92, 11.23 -11.9" stroke="#be4bdb" stroke-width="4" fill="none"></path></g></g><mask></mask><g stroke-linecap="round"><g transform="translate(22.31523482909688 21.809700823076128) rotate(0 -5.872780960163254 -5.88020993470127)"><path d="M0 0 C-1.96 -1.96, -9.79 -9.8, -11.75 -11.76 M0 0 C-1.96 -1.96, -9.79 -9.8, -11.75 -11.76" stroke="#be4bdb" stroke-width="4" fill="none"></path></g></g><mask></mask></svg>