<svg version="1.1" xmlns="http://www.w3.org/2000/svg" viewBox="0 0 32.446656519403405 44.45320601621461" width="32.446656519403405" height="44.45320601621461" filter="invert(93%) hue-rotate(180deg)"><!-- svg-source:excalidraw --><metadata></metadata><defs><style class="style-fonts">
      </style></defs><rect x="0" y="0" width="32.446656519403405" height="44.45320601621461" fill="transparent"></rect><g stroke-linecap="round"><g transform="translate(7.559700302512283 28.371262281621966) rotate(226.14899263620825 8.564683499113016 -0.055780467175281956)"><path d="M0 0 C2.85 -0.02, 14.27 -0.09, 17.13 -0.11 M0 0 C2.85 -0.02, 14.27 -0.09, 17.13 -0.11" stroke="#be4bdb" stroke-width="4" fill="none"></path></g></g><mask></mask><g stroke-linecap="round"><g transform="translate(17.766670980376148 23.885189901964623) rotate(226.14899263620825 4.522118505467006 4.125378309858206)"><path d="M0 0 C1.51 1.38, 7.54 6.88, 9.04 8.25 M0 0 C1.51 1.38, 7.54 6.88, 9.04 8.25" stroke="#be4bdb" stroke-width="4" fill="none"></path></g></g><mask></mask><g stroke-linecap="round"><g transform="translate(7.705714219102447 16.11082659982094) rotate(226.14899263620825 8.333928836964333 -0.3283235967346627)"><path d="M0 0 C2.78 -0.11, 13.89 -0.55, 16.67 -0.66 M0 0 C2.78 -0.11, 13.89 -0.55, 16.67 -0.66" stroke="#be4bdb" stroke-width="4" fill="none"></path></g></g><mask></mask><g stroke-linecap="round"><g transform="translate(14.091109367966055 19.897635507704763) rotate(226.14899263620825 -4.0715948021852455 -3.8844224773893075)"><path d="M0 0 C-1.36 -1.29, -6.79 -6.47, -8.14 -7.77 M0 0 C-1.36 -1.29, -6.79 -6.47, -8.14 -7.77" stroke="#be4bdb" stroke-width="4" fill="none"></path></g></g><mask></mask></svg>