<svg version="1.1" xmlns="http://www.w3.org/2000/svg" viewBox="0 0 31.497564795872677 45.29464255091443" width="31.497564795872677" height="45.29464255091443" filter="invert(93%) hue-rotate(180deg)"><!-- svg-source:excalidraw --><metadata></metadata><defs><style class="style-fonts">
      </style></defs><rect x="0" y="0" width="31.497564795872677" height="45.29464255091443" fill="transparent"></rect><g stroke-linecap="round"><g transform="translate(10 10) rotate(0 0.06051349892550206 6.595971382894277)"><path d="M0 0 C0.02 2.2, 0.1 10.99, 0.12 13.19 M0 0 C0.02 2.2, 0.1 10.99, 0.12 13.19" stroke="#be4bdb" stroke-width="4" fill="none"></path></g></g><mask></mask><g stroke-linecap="round"><g transform="translate(10.121026997854642 23.312969763639558) rotate(0 5.567241901158013 5.990836393637437)"><path d="M0 0 C1.86 2, 9.28 9.98, 11.13 11.98 M0 0 C1.86 2, 9.28 9.98, 11.13 11.98" stroke="#be4bdb" stroke-width="4" fill="none"></path></g></g><mask></mask><g stroke-linecap="round"><g transform="translate(10.726161987109663 23.191942765788554) rotate(0 5.385701404381507 -5.869809395786433)"><path d="M0 0 C1.8 -1.96, 8.98 -9.78, 10.77 -11.74 M0 0 C1.8 -1.96, 8.98 -9.78, 10.77 -11.74" stroke="#be4bdb" stroke-width="4" fill="none"></path></g></g><mask></mask></svg>