<svg version="1.1" xmlns="http://www.w3.org/2000/svg" viewBox="0 0 44.18626415268409 42.8632520133724" width="44.18626415268409" height="42.8632520133724" filter="invert(93%) hue-rotate(180deg)"><!-- svg-source:excalidraw --><metadata></metadata><defs><style class="style-fonts">
      </style></defs><rect x="0" y="0" width="44.18626415268409" height="42.8632520133724" fill="transparent"></rect><g stroke-linecap="round"><g transform="translate(34.18626415268409 10) rotate(0 -6.370304451994343 0.02320488656005182)"><path d="M0 0 C-2.12 0.01, -10.62 0.04, -12.74 0.05 M0 0 C-2.12 0.01, -10.62 0.04, -12.74 0.05" stroke="#be4bdb" stroke-width="4" fill="none"></path></g></g><mask></mask><g stroke-linecap="round"><g transform="translate(22.302655730620245 32.8632520133724) rotate(0 -6.151327865310122 -5.53726893197836)"><path d="M0 0 C-2.05 -1.85, -10.25 -9.23, -12.3 -11.07 M0 0 C-2.05 -1.85, -10.25 -9.23, -12.3 -11.07" stroke="#be4bdb" stroke-width="4" fill="none"></path></g></g><mask></mask><g stroke-linecap="round"><g transform="translate(20.618887163263935 10.208911288948002) rotate(0 -5.145745493916365 5.457185263026076)"><path d="M0 0 C-1.72 1.82, -8.58 9.1, -10.29 10.91 M0 0 C-1.72 1.82, -8.58 9.1, -10.29 10.91" stroke="#be4bdb" stroke-width="4" fill="none"></path></g></g><mask></mask></svg>