<svg version="1.1" xmlns="http://www.w3.org/2000/svg" viewBox="0 0 31.808662447070674 57.45609066583711" width="31.808662447070674" height="57.45609066583711" filter="invert(93%) hue-rotate(180deg)"><!-- svg-source:excalidraw --><metadata></metadata><defs><style class="style-fonts">
      </style></defs><rect x="0" y="0" width="31.808662447070674" height="57.45609066583711" fill="transparent"></rect><g stroke-linecap="round"><g transform="translate(10.136180272820638 47.45609066583711) rotate(0 -0.06809013641031925 -6.368106194954635)"><path d="M0 0 C-0.02 -2.12, -0.11 -10.61, -0.14 -12.74 M0 0 C-0.02 -2.12, -0.11 -10.61, -0.14 -12.74" stroke="#be4bdb" stroke-width="4" fill="none"></path></g></g><mask></mask><g stroke-linecap="round"><g transform="translate(10.117305024865345 34.048426679641125) rotate(0 5.640038095098134 -5.4855165034518905)"><path d="M0 0 C1.88 -1.83, 9.4 -9.14, 11.28 -10.97 M0 0 C1.88 -1.83, 9.4 -9.14, 11.28 -10.97" stroke="#be4bdb" stroke-width="4" fill="none"></path></g></g><mask></mask><g stroke-linecap="round"><g transform="translate(21.808662447070674 22.51624892336804) rotate(0 0 -6.2581244616840195)"><path d="M0 0 C0 -2.09, 0 -10.43, 0 -12.52 M0 0 C0 -2.09, 0 -10.43, 0 -12.52" stroke="#be4bdb" stroke-width="4" fill="none"></path></g></g><mask></mask></svg>