<svg version="1.1" xmlns="http://www.w3.org/2000/svg" viewBox="0 0 37.72855275938491 46.71343153880298" width="37.72855275938491" height="46.71343153880298" filter="invert(93%) hue-rotate(180deg)"><!-- svg-source:excalidraw --><metadata></metadata><defs><style class="style-fonts">
      </style></defs><rect x="0" y="0" width="37.72855275938491" height="46.71343153880298" fill="transparent"></rect><g stroke-linecap="round"><g transform="translate(27.72855275938491 36.71343153880298) rotate(0 0 -4.371836989984331)" fill-rule="evenodd"><path d="M0 0 C0 -1.46, 0 -8.04, 0 -8.74 C0 -9.45, 0 -4.97, 0 -4.22" stroke="none" stroke-width="0" fill="#b2f2bb" fill-rule="evenodd"></path><path d="M0 0 C0 -1.46, 0 -8.04, 0 -8.74 C0 -9.45, 0 -4.97, 0 -4.22 M0 0 C0 -1.46, 0 -8.04, 0 -8.74 C0 -9.45, 0 -4.97, 0 -4.22" stroke="#da77f2" stroke-width="4" fill="none"></path></g></g><mask></mask><g stroke-linecap="round"><g transform="translate(27.54764915980013 27.849155159108705) rotate(0 -8.773824579900065 -8.924577579554352)"><path d="M0 0 C-2.92 -2.97, -14.62 -14.87, -17.55 -17.85 M0 0 C-2.92 -2.97, -14.62 -14.87, -17.55 -17.85" stroke="#da77f2" stroke-width="4" fill="none"></path></g></g><mask></mask></svg>