<svg version="1.1" xmlns="http://www.w3.org/2000/svg" viewBox="0 0 33.21767552349411 61.92536242090682" width="33.21767552349411" height="61.92536242090682" filter="invert(93%) hue-rotate(180deg)"><!-- svg-source:excalidraw --><metadata></metadata><defs><style class="style-fonts">
      </style></defs><rect x="0" y="0" width="33.21767552349411" height="61.92536242090682" fill="transparent"></rect><g stroke-linecap="round"><g transform="translate(10.152429343028416 51.92536242090682) rotate(0 -0.07621467151420802 -7.127950499164399)"><path d="M0 0 C-0.03 -2.38, -0.13 -11.88, -0.15 -14.26 M0 0 C-0.03 -2.38, -0.13 -11.88, -0.15 -14.26" stroke="#da77f2" stroke-width="4" fill="none"></path></g></g><mask></mask><g stroke-linecap="round"><g transform="translate(10.131301894936769 36.917892024332104) rotate(0 6.313009099489136 -6.140049946077852)"><path d="M0 0 C2.1 -2.05, 10.52 -10.23, 12.63 -12.28 M0 0 C2.1 -2.05, 10.52 -10.23, 12.63 -12.28" stroke="#da77f2" stroke-width="4" fill="none"></path></g></g><mask></mask><g stroke-linecap="round"><g transform="translate(23.21767552349411 24.00969142626309) rotate(0 0 -7.0048457131315445)"><path d="M0 0 C0 -2.33, 0 -11.67, 0 -14.01 M0 0 C0 -2.33, 0 -11.67, 0 -14.01" stroke="#da77f2" stroke-width="4" fill="none"></path></g></g><mask></mask></svg>