<svg version="1.1" xmlns="http://www.w3.org/2000/svg" viewBox="0 0 32.66440906020216 44.03806013474241" width="32.66440906020216" height="44.03806013474241" filter="invert(93%) hue-rotate(180deg)"><!-- svg-source:excalidraw --><metadata></metadata><defs><style class="style-fonts">
      </style></defs><rect x="0" y="0" width="32.66440906020216" height="44.03806013474241" fill="transparent"></rect><g stroke-linecap="round"><g transform="translate(10 34.03806013474241) rotate(0 6.160531277100745 -5.929460932949041)"><path d="M0 0 C2.05 -1.98, 10.27 -9.88, 12.32 -11.86 M0 0 C2.05 -1.98, 10.27 -9.88, 12.32 -11.86" stroke="#be4bdb" stroke-width="4" fill="none"></path></g></g><mask></mask><g stroke-linecap="round"><g transform="translate(22.19353244472586 21.845906005555662) rotate(0 -5.699768904334633 -5.763533959074266)"><path d="M0 0 C-1.9 -1.92, -9.5 -9.61, -11.4 -11.53 M0 0 C-1.9 -1.92, -9.5 -9.61, -11.4 -11.53" stroke="#be4bdb" stroke-width="4" fill="none"></path></g></g><mask></mask><g stroke-linecap="round"><g transform="translate(22.66440906020216 22.05661542069174) rotate(0 0 -6.028307710345871)"><path d="M0 0 C0 -2.01, 0 -10.05, 0 -12.06 M0 0 C0 -2.01, 0 -10.05, 0 -12.06" stroke="#be4bdb" stroke-width="4" fill="none"></path></g></g><mask></mask></svg>