<svg version="1.1" xmlns="http://www.w3.org/2000/svg" viewBox="0 0 39.503548192407834 38.43668516406615" width="39.503548192407834" height="38.43668516406615" filter="invert(93%) hue-rotate(180deg)"><!-- svg-source:excalidraw --><metadata></metadata><defs><style class="style-fonts">
      </style></defs><rect x="0" y="0" width="39.503548192407834" height="38.43668516406615" fill="transparent"></rect><g stroke-linecap="round"><g transform="translate(29.503548192407834 28.436685164066148) rotate(0 -5.136946288829677 -0.018712175657128682)"><path d="M0 0 C-1.71 -0.01, -8.56 -0.03, -10.27 -0.04 M0 0 C-1.71 -0.01, -8.56 -0.03, -10.27 -0.04" stroke="#da77f2" stroke-width="4" fill="none"></path></g></g><mask></mask><g stroke-linecap="round"><g transform="translate(19.920731760061244 10) rotate(0 -4.960365880030622 4.465195235915417)"><path d="M0 0 C-1.65 1.49, -8.27 7.44, -9.92 8.93 M0 0 C-1.65 1.49, -8.27 7.44, -9.92 8.93" stroke="#da77f2" stroke-width="4" fill="none"></path></g></g><mask></mask><g stroke-linecap="round"><g transform="translate(18.562958554946817 28.26822130515211) rotate(0 -4.149474866929268 -4.400616610338147)"><path d="M0 0 C-1.38 -1.47, -6.92 -7.33, -8.3 -8.8 M0 0 C-1.38 -1.47, -6.92 -7.33, -8.3 -8.8" stroke="#da77f2" stroke-width="4" fill="none"></path></g></g><mask></mask></svg>