<svg version="1.1" xmlns="http://www.w3.org/2000/svg" viewBox="0 0 32.065801787955934 44.885716187656726" width="32.065801787955934" height="44.885716187656726" filter="invert(93%) hue-rotate(180deg)"><!-- svg-source:excalidraw --><metadata></metadata><defs><style class="style-fonts">
      </style></defs><rect x="0" y="0" width="32.065801787955934" height="44.885716187656726" fill="transparent"></rect><g stroke-linecap="round"><g transform="translate(21.940116352665427 34.50865988178339) rotate(0 0.06284271764525329 -5.970058176331804)"><path d="M0 0 C0.02 -1.99, 0.1 -9.95, 0.13 -11.94 M0 0 C0.02 -1.99, 0.1 -9.95, 0.13 -11.94" stroke="#be4bdb" stroke-width="4" fill="none"></path></g></g><mask></mask><g stroke-linecap="round"><g transform="translate(22.065801787955934 21.94011635266361) rotate(0 -5.844372741041298 -5.970058176331804)"><path d="M0 0 C-1.95 -1.99, -9.74 -9.95, -11.69 -11.94 M0 0 C-1.95 -1.99, -9.74 -9.95, -11.69 -11.94" stroke="#be4bdb" stroke-width="4" fill="none"></path></g></g><mask></mask><g stroke-linecap="round"><g transform="translate(22.065801787955934 21.688745482080776) rotate(0 -6.032900893977967 6.598485352787975)"><path d="M0 0 C-2.01 2.2, -10.05 11, -12.07 13.2 M0 0 C-2.01 2.2, -10.05 11, -12.07 13.2" stroke="#be4bdb" stroke-width="4" fill="none"></path></g></g><mask></mask></svg>