<svg version="1.1" xmlns="http://www.w3.org/2000/svg" viewBox="0 0 37.53241521993186 55.23133439854428" width="37.53241521993186" height="55.23133439854428" filter="invert(93%) hue-rotate(180deg)"><!-- svg-source:excalidraw --><metadata></metadata><defs><style class="style-fonts">
      </style></defs><rect x="0" y="0" width="37.53241521993186" height="55.23133439854428" fill="transparent"></rect><g stroke-linecap="round"><g transform="translate(27.438077678580157 10.073634202919493) rotate(0 0.04716877067585301 17.5196218506444)"><path d="M0 0 C0.02 5.84, 0.08 29.2, 0.09 35.04 M0 0 C0.02 5.84, 0.08 29.2, 0.09 35.04" stroke="#da77f2" stroke-width="4" fill="none"></path></g></g><mask></mask><g stroke-linecap="round"><g transform="translate(27.171952665225035 45.23133439854428) rotate(0 -8.585976332612518 -8.911202708847668)"><path d="M0 0 C-2.86 -2.97, -14.31 -14.85, -17.17 -17.82 M0 0 C-2.86 -2.97, -14.31 -14.85, -17.17 -17.82" stroke="#da77f2" stroke-width="4" fill="none"></path></g></g><mask></mask><g stroke-linecap="round"><g transform="translate(10.161473529034993 27.414981591171454) rotate(0 8.287272267202752 -8.707490795585727)"><path d="M0 0 C2.76 -2.9, 13.81 -14.51, 16.57 -17.41 M0 0 C2.76 -2.9, 13.81 -14.51, 16.57 -17.41" stroke="#da77f2" stroke-width="4" fill="none"></path></g></g><mask></mask></svg>