<svg version="1.1" xmlns="http://www.w3.org/2000/svg" viewBox="0 0 44.51908009245744 32.46970947954469" width="44.51908009245744" height="32.46970947954469" filter="invert(93%) hue-rotate(180deg)"><!-- svg-source:excalidraw --><metadata></metadata><defs><style class="style-fonts">
      </style></defs><rect x="0" y="0" width="44.51908009245744" height="32.46970947954469" fill="transparent"></rect><g stroke-linecap="round"><g transform="translate(34.46151178151558 22.42363119935544) rotate(0 -6.141216912867094 0.007174468368248199)"><path d="M0 0 C-2.05 0, -10.24 0.01, -12.28 0.01 M0 0 C-2.05 0, -10.24 0.01, -12.28 0.01" stroke="#be4bdb" stroke-width="4" fill="none"></path></g></g><mask></mask><g stroke-linecap="round"><g transform="translate(34.51908009245744 22.087008201062417) rotate(0 -5.981431463782428 -5.98437665176516)"><path d="M0 0 C-1.99 -1.99, -9.97 -9.97, -11.96 -11.97 M0 0 C-1.99 -1.99, -9.97 -9.97, -11.96 -11.97" stroke="#be4bdb" stroke-width="4" fill="none"></path></g></g><mask></mask><g stroke-linecap="round"><g transform="translate(22.31416316918694 10.089297654398251) rotate(0 -6.010215619254268 -0.04464882719912566)"><path d="M0 0 C-2 -0.01, -10.02 -0.07, -12.02 -0.09 M0 0 C-2 -0.01, -10.02 -0.07, -12.02 -0.09" stroke="#be4bdb" stroke-width="4" fill="none"></path></g></g><mask></mask><g stroke-linecap="round"><g transform="translate(10 10.672522377029964) rotate(0 5.930322894711935 5.898593551257363)"><path d="M0 0 C1.98 1.97, 9.88 9.83, 11.86 11.8 M0 0 C1.98 1.97, 9.88 9.83, 11.86 11.8" stroke="#be4bdb" stroke-width="4" fill="none"></path></g></g><mask></mask></svg>