<svg version="1.1" xmlns="http://www.w3.org/2000/svg" viewBox="0 0 44.35511161603608 31.414259064351427" width="44.35511161603608" height="31.414259064351427" filter="invert(93%) hue-rotate(180deg)"><!-- svg-source:excalidraw --><metadata></metadata><defs><style class="style-fonts">
      </style></defs><rect x="0" y="0" width="44.35511161603608" height="31.414259064351427" fill="transparent"></rect><g stroke-linecap="round"><g transform="translate(10 10) rotate(0 12.152249952133388 0)"><path d="M0 0 C4.05 0, 20.25 0, 24.3 0 M0 0 C4.05 0, 20.25 0, 24.3 0" stroke="#be4bdb" stroke-width="4" fill="none"></path></g></g><mask></mask><g stroke-linecap="round"><g transform="translate(10.19679757007907 10.196797570073613) rotate(0 5.707129532175713 5.608730747137997)"><path d="M0 0 C1.9 1.87, 9.51 9.35, 11.41 11.22 M0 0 C1.9 1.87, 9.51 9.35, 11.41 11.22" stroke="#be4bdb" stroke-width="4" fill="none"></path></g></g><mask></mask><g stroke-linecap="round"><g transform="translate(22.201449344651337 21.414259064351427) rotate(0 6.076831135692373 -5.629799645267667)"><path d="M0 0 C2.03 -1.88, 10.13 -9.38, 12.15 -11.26 M0 0 C2.03 -1.88, 10.13 -9.38, 12.15 -11.26" stroke="#be4bdb" stroke-width="4" fill="none"></path></g></g><mask></mask></svg>