<svg version="1.1" xmlns="http://www.w3.org/2000/svg" viewBox="0 0 32.7072756942398 56.183429095465726" width="32.7072756942398" height="56.183429095465726" filter="invert(93%) hue-rotate(180deg)"><!-- svg-source:excalidraw --><metadata></metadata><defs><style class="style-fonts">
      </style></defs><rect x="0" y="0" width="32.7072756942398" height="56.183429095465726" fill="transparent"></rect><g stroke-linecap="round"><g transform="translate(22.707275694239797 10) rotate(0 -6.245949070051211 6.030571515911106)"><path d="M0 0 C-2.08 2.01, -10.41 10.05, -12.49 12.06 M0 0 C-2.08 2.01, -10.41 10.05, -12.49 12.06" stroke="#be4bdb" stroke-width="4" fill="none"></path></g></g><mask></mask><g stroke-linecap="round"><g transform="translate(10 22.276520585961407) rotate(0 5.815193961771001 5.922882738841054)"><path d="M0 0 C1.94 1.97, 9.69 9.87, 11.63 11.85 M0 0 C1.94 1.97, 9.69 9.87, 11.63 11.85" stroke="#be4bdb" stroke-width="4" fill="none"></path></g></g><mask></mask><g stroke-linecap="round"><g transform="translate(22.06114303182403 34.33766361778362) rotate(0 -6.030571515911106 5.922882738841054)"><path d="M0 0 C-2.01 1.97, -10.05 9.87, -12.06 11.85 M0 0 C-2.01 1.97, -10.05 9.87, -12.06 11.85" stroke="#be4bdb" stroke-width="4" fill="none"></path></g></g><mask></mask></svg>