<svg version="1.1" xmlns="http://www.w3.org/2000/svg" viewBox="0 0 44.519080092453805 32.50062839778002" width="44.519080092453805" height="32.50062839778002" filter="invert(93%) hue-rotate(180deg)"><!-- svg-source:excalidraw --><metadata></metadata><defs><style class="style-fonts">
      </style></defs><rect x="0" y="0" width="44.519080092453805" height="32.50062839778002" fill="transparent"></rect><g stroke-linecap="round"><g transform="translate(10.05756831094186 22.45455011759077) rotate(0 6.141216912868003 0.007174468368248199)"><path d="M0 0 C2.05 0, 10.24 0.01, 12.28 0.01 M0 0 C2.05 0, 10.24 0.01, 12.28 0.01" stroke="#be4bdb" stroke-width="4" fill="none"></path></g></g><mask></mask><g stroke-linecap="round"><g transform="translate(10 22.087008201064236) rotate(0 5.981431463782428 -5.98437665176516)"><path d="M0 0 C1.99 -1.99, 9.97 -9.97, 11.96 -11.97 M0 0 C1.99 -1.99, 9.97 -9.97, 11.96 -11.97" stroke="#be4bdb" stroke-width="4" fill="none"></path></g></g><mask></mask><g stroke-linecap="round"><g transform="translate(22.204916923266865 10.089297654398251) rotate(0 6.010215619254268 -0.04464882719912566)"><path d="M0 0 C2 -0.01, 10.02 -0.07, 12.02 -0.09 M0 0 C2 -0.01, 10.02 -0.07, 12.02 -0.09" stroke="#be4bdb" stroke-width="4" fill="none"></path></g></g><mask></mask><g stroke-linecap="round"><g transform="translate(34.519080092453805 10.703441295265293) rotate(0 -5.930322894711935 5.898593551257363)"><path d="M0 0 C-1.98 1.97, -9.88 9.83, -11.86 11.8 M0 0 C-1.98 1.97, -9.88 9.83, -11.86 11.8" stroke="#be4bdb" stroke-width="4" fill="none"></path></g></g><mask></mask></svg>