<svg version="1.1" xmlns="http://www.w3.org/2000/svg" viewBox="0 0 57.196174996297486 32.47598227477647" width="57.196174996297486" height="32.47598227477647" filter="invert(93%) hue-rotate(180deg)"><!-- svg-source:excalidraw --><metadata></metadata><defs><style class="style-fonts">
      </style></defs><rect x="0" y="0" width="57.196174996297486" height="32.47598227477647" fill="transparent"></rect><g stroke-linecap="round"><g transform="translate(40.89616865165408 3.700886448905294) rotate(88.76667140499237 -0.06809013641031925 6.368106194954635)"><path d="M0 0 C-0.02 2.12, -0.11 10.61, -0.14 12.74 M0 0 C-0.02 2.12, -0.11 10.61, -0.14 12.74" stroke="#be4bdb" stroke-width="4" fill="none"></path></g></g><mask></mask><g stroke-linecap="round"><g transform="translate(22.788323162543747 10.54100058685981) rotate(88.76667140499237 5.640038095098134 5.485516503451436)"><path d="M0 0 C1.88 1.83, 9.4 9.14, 11.28 10.97 M0 0 C1.88 1.83, 9.4 9.14, 11.28 10.97" stroke="#be4bdb" stroke-width="4" fill="none"></path></g></g><mask></mask><g stroke-linecap="round"><g transform="translate(16.256674656100586 16.083158052006183) rotate(88.76667140499237 0 6.2581244616840195)"><path d="M0 0 C0 2.09, 0 10.43, 0 12.52 M0 0 C0 2.09, 0 10.43, 0 12.52" stroke="#be4bdb" stroke-width="4" fill="none"></path></g></g><mask></mask></svg>