<svg version="1.1" xmlns="http://www.w3.org/2000/svg" viewBox="0 0 36.351269929438786 52.12436782423538" width="36.351269929438786" height="52.12436782423538" filter="invert(93%) hue-rotate(180deg)"><!-- svg-source:excalidraw --><metadata></metadata><defs><style class="style-fonts">
      </style></defs><rect x="0" y="0" width="36.351269929438786" height="52.12436782423538" fill="transparent"></rect><g stroke-linecap="round"><g transform="translate(29.557110710868074 34.1344708149536) rotate(133.85100736379175 -11.25149163840615 -0.07327923560478666)"><path d="M0 0 C-3.75 -0.02, -18.75 -0.12, -22.5 -0.15 M0 0 C-3.75 -0.02, -18.75 -0.12, -22.5 -0.15" stroke="#da77f2" stroke-width="4" fill="none"></path></g></g><mask></mask><g stroke-linecap="round"><g transform="translate(16.14813357267667 28.241082475005896) rotate(133.85100736379175 -5.940742417092224 5.419541721938003)"><path d="M0 0 C-1.98 1.81, -9.9 9.03, -11.88 10.84 M0 0 C-1.98 1.81, -9.9 9.03, -11.88 10.84" stroke="#da77f2" stroke-width="4" fill="none"></path></g></g><mask></mask><g stroke-linecap="round"><g transform="translate(29.365291087669902 18.02784065502965) rotate(133.85100736379175 -10.94834743559295 -0.43132127459557523)"><path d="M0 0 C-3.65 -0.14, -18.25 -0.72, -21.9 -0.86 M0 0 C-3.65 -0.14, -18.25 -0.72, -21.9 -0.86" stroke="#da77f2" stroke-width="4" fill="none"></path></g></g><mask></mask><g stroke-linecap="round"><g transform="translate(20.976747584247278 23.002601107966257) rotate(133.85100736379175 5.348885907636031 -5.102996161961528)"><path d="M0 0 C1.78 -1.7, 8.91 -8.5, 10.7 -10.21 M0 0 C1.78 -1.7, 8.91 -8.5, 10.7 -10.21" stroke="#da77f2" stroke-width="4" fill="none"></path></g></g><mask></mask></svg>