<svg version="1.1" xmlns="http://www.w3.org/2000/svg" viewBox="0 0 29.729735240045557 40.06757893259601" width="29.729735240045557" height="40.06757893259601" filter="invert(93%) hue-rotate(180deg)"><!-- svg-source:excalidraw --><metadata></metadata><defs><style class="style-fonts">
      </style></defs><rect x="0" y="0" width="29.729735240045557" height="40.06757893259601" fill="transparent"></rect><g stroke-linecap="round"><g transform="translate(10.101351408749906 29.763524706348107) rotate(0 -0.05067570437495306 -4.814191915647825)"><path d="M0 0 C-0.02 -1.6, -0.08 -8.02, -0.1 -9.63 M0 0 C-0.02 -1.6, -0.08 -8.02, -0.1 -9.63" stroke="#da77f2" stroke-width="4" fill="none"></path></g></g><mask></mask><g stroke-linecap="round"><g transform="translate(10 19.62838383129565) rotate(0 4.71284050689701 -4.814191915647825)"><path d="M0 0 C1.57 -1.6, 7.85 -8.02, 9.43 -9.63 M0 0 C1.57 -1.6, 7.85 -8.02, 9.43 -9.63" stroke="#da77f2" stroke-width="4" fill="none"></path></g></g><mask></mask><g stroke-linecap="round"><g transform="translate(10 19.42568101379584) rotate(0 4.864867620022778 5.320948959400084)"><path d="M0 0 C1.62 1.77, 8.11 8.87, 9.73 10.64 M0 0 C1.62 1.77, 8.11 8.87, 9.73 10.64" stroke="#da77f2" stroke-width="4" fill="none"></path></g></g><mask></mask></svg>