<svg version="1.1" xmlns="http://www.w3.org/2000/svg" viewBox="0 0 36.909156552485 36.67752427094274" width="36.909156552485" height="36.67752427094274" filter="invert(93%) hue-rotate(180deg)"><!-- svg-source:excalidraw --><metadata></metadata><defs><style class="style-fonts">
      </style></defs><rect x="0" y="0" width="36.909156552485" height="36.67752427094274" fill="transparent"></rect><g stroke-linecap="round"><g transform="translate(10 18.22294599469933) rotate(0 3.7640245750399117 -0.028954035192327865)"><path d="M0 0 C1.25 -0.01, 6.27 -0.05, 7.53 -0.06 M0 0 C1.25 -0.01, 6.27 -0.05, 7.53 -0.06" stroke="#da77f2" stroke-width="4" fill="none"></path></g></g><mask></mask><g stroke-linecap="round"><g transform="translate(18.3387621354741 18.396670205855116) rotate(0 -0.057908070385565225 4.140427032543812)"><path d="M0 0 C-0.02 1.38, -0.1 6.9, -0.12 8.28 M0 0 C-0.02 1.38, -0.1 6.9, -0.12 8.28" stroke="#da77f2" stroke-width="4" fill="none"></path></g></g><mask></mask><g stroke-linecap="round"><g transform="translate(18.917842839324294 17.643865290849135) rotate(0 3.9956568565803536 -3.8219326454245675)"><path d="M0 0 C1.33 -1.27, 6.66 -6.37, 7.99 -7.64 M0 0 C1.33 -1.27, 6.66 -6.37, 7.99 -7.64" stroke="#da77f2" stroke-width="4" fill="none"></path></g></g><mask></mask></svg>