<svg version="1.1" xmlns="http://www.w3.org/2000/svg" viewBox="0 0 43.63696104291921 56.254022726863695" width="43.63696104291921" height="56.254022726863695" filter="invert(93%) hue-rotate(180deg)"><!-- svg-source:excalidraw --><metadata></metadata><defs><style class="style-fonts">
      </style></defs><rect x="0" y="0" width="43.63696104291921" height="56.254022726863695" fill="transparent"></rect><g stroke-linecap="round"><g transform="translate(33.63696104291921 10) rotate(0 -5.933861491813332 5.861480132962242)"><path d="M0 0 C-1.98 1.95, -9.89 9.77, -11.87 11.72 M0 0 C-1.98 1.95, -9.89 9.77, -11.87 11.72" stroke="#be4bdb" stroke-width="4" fill="none"></path></g></g><mask></mask><g stroke-linecap="round"><g transform="translate(21.485641961478905 21.864758314832216) rotate(0 0 6.877205371997661)"><path d="M0 0 C0 2.29, 0 11.46, 0 13.75 M0 0 C0 2.29, 0 11.46, 0 13.75" stroke="#be4bdb" stroke-width="4" fill="none"></path></g></g><mask></mask><g stroke-linecap="round"><g transform="translate(21.343843912572993 36.04456320554709) rotate(0 -5.671921956286496 5.1047297606583015)"><path d="M0 0 C-1.89 1.7, -9.45 8.51, -11.34 10.21 M0 0 C-1.89 1.7, -9.45 8.51, -11.34 10.21" stroke="#be4bdb" stroke-width="4" fill="none"></path></g></g><mask></mask></svg>