<svg version="1.1" xmlns="http://www.w3.org/2000/svg" viewBox="0 0 34.08309132198383 54.2591013324145" width="34.08309132198383" height="54.2591013324145" filter="invert(93%) hue-rotate(180deg)"><!-- svg-source:excalidraw --><metadata></metadata><defs><style class="style-fonts">
      </style></defs><rect x="0" y="0" width="34.08309132198383" height="54.2591013324145" fill="#ffffff"></rect><g stroke-linecap="round"><g transform="translate(10.268063240125684 10.409702125002696) rotate(0 -0.15427677168577247 15.843763817534636)"><path d="M-0.27 -0.38 C-0.23 4.8, 0.18 26.15, 0.15 31.48 M0.6 0.61 C0.61 5.83, 0.2 26.81, -0.04 32.07" stroke="#ffffff" stroke-width="4" fill="transparent"></path></g></g><mask></mask><g stroke-linecap="round"><g transform="translate(22.624706633464484 10.794760855201275) rotate(0 0.02551613666139474 15.843763817534636)"><path d="M0.46 -0.21 C0.49 5.12, 0.04 26.37, -0.08 31.61 M0.04 -0.79 C0.01 4.66, -0.72 26.87, -0.59 32.27" stroke="#ffffff" stroke-width="4" fill="none"></path></g></g><mask></mask><g stroke-linecap="round" transform="translate(20.39392584377765 40.81825383666728) rotate(0 1.844582739103089 1.7204237478736104)"><path d="M3.69 1.72 C3.69 1.82, 3.68 1.92, 3.66 2.02 C3.64 2.12, 3.61 2.22, 3.58 2.31 C3.54 2.4, 3.5 2.49, 3.44 2.58 C3.39 2.67, 3.33 2.75, 3.26 2.83 C3.19 2.9, 3.11 2.97, 3.03 3.04 C2.95 3.1, 2.86 3.16, 2.77 3.21 C2.67 3.26, 2.58 3.3, 2.48 3.34 C2.38 3.37, 2.27 3.4, 2.16 3.41 C2.06 3.43, 1.95 3.44, 1.84 3.44 C1.74 3.44, 1.63 3.43, 1.52 3.41 C1.42 3.4, 1.31 3.37, 1.21 3.34 C1.11 3.3, 1.01 3.26, 0.92 3.21 C0.83 3.16, 0.74 3.1, 0.66 3.04 C0.58 2.97, 0.5 2.9, 0.43 2.83 C0.36 2.75, 0.3 2.67, 0.25 2.58 C0.19 2.49, 0.15 2.4, 0.11 2.31 C0.07 2.22, 0.05 2.12, 0.03 2.02 C0.01 1.92, 0 1.82, 0 1.72 C0 1.62, 0.01 1.52, 0.03 1.42 C0.05 1.32, 0.07 1.23, 0.11 1.13 C0.15 1.04, 0.19 0.95, 0.25 0.86 C0.3 0.77, 0.36 0.69, 0.43 0.61 C0.5 0.54, 0.58 0.47, 0.66 0.4 C0.74 0.34, 0.83 0.28, 0.92 0.23 C1.01 0.18, 1.11 0.14, 1.21 0.1 C1.31 0.07, 1.42 0.04, 1.52 0.03 C1.63 0.01, 1.74 0, 1.84 0 C1.95 0, 2.06 0.01, 2.16 0.03 C2.27 0.04, 2.38 0.07, 2.48 0.1 C2.58 0.14, 2.67 0.18, 2.77 0.23 C2.86 0.28, 2.95 0.34, 3.03 0.4 C3.11 0.47, 3.19 0.54, 3.26 0.61 C3.33 0.69, 3.39 0.77, 3.44 0.86 C3.5 0.95, 3.54 1.04, 3.58 1.13 C3.61 1.23, 3.64 1.32, 3.66 1.42 C3.68 1.52, 3.68 1.67, 3.69 1.72 C3.69 1.77, 3.69 1.67, 3.69 1.72" stroke="none" stroke-width="0" fill="#2f9e44"></path><path d="M3.69 1.72 C3.69 1.82, 3.68 1.92, 3.66 2.02 C3.64 2.12, 3.61 2.22, 3.58 2.31 C3.54 2.4, 3.5 2.49, 3.44 2.58 C3.39 2.67, 3.33 2.75, 3.26 2.83 C3.19 2.9, 3.11 2.97, 3.03 3.04 C2.95 3.1, 2.86 3.16, 2.77 3.21 C2.67 3.26, 2.58 3.3, 2.48 3.34 C2.38 3.37, 2.27 3.4, 2.16 3.41 C2.06 3.43, 1.95 3.44, 1.84 3.44 C1.74 3.44, 1.63 3.43, 1.52 3.41 C1.42 3.4, 1.31 3.37, 1.21 3.34 C1.11 3.3, 1.01 3.26, 0.92 3.21 C0.83 3.16, 0.74 3.1, 0.66 3.04 C0.58 2.97, 0.5 2.9, 0.43 2.83 C0.36 2.75, 0.3 2.67, 0.25 2.58 C0.19 2.49, 0.15 2.4, 0.11 2.31 C0.07 2.22, 0.05 2.12, 0.03 2.02 C0.01 1.92, 0 1.82, 0 1.72 C0 1.62, 0.01 1.52, 0.03 1.42 C0.05 1.32, 0.07 1.23, 0.11 1.13 C0.15 1.04, 0.19 0.95, 0.25 0.86 C0.3 0.77, 0.36 0.69, 0.43 0.61 C0.5 0.54, 0.58 0.47, 0.66 0.4 C0.74 0.34, 0.83 0.28, 0.92 0.23 C1.01 0.18, 1.11 0.14, 1.21 0.1 C1.31 0.07, 1.42 0.04, 1.52 0.03 C1.63 0.01, 1.74 0, 1.84 0 C1.95 0, 2.06 0.01, 2.16 0.03 C2.27 0.04, 2.38 0.07, 2.48 0.1 C2.58 0.14, 2.67 0.18, 2.77 0.23 C2.86 0.28, 2.95 0.34, 3.03 0.4 C3.11 0.47, 3.19 0.54, 3.26 0.61 C3.33 0.69, 3.39 0.77, 3.44 0.86 C3.5 0.95, 3.54 1.04, 3.58 1.13 C3.61 1.23, 3.64 1.32, 3.66 1.42 C3.68 1.52, 3.68 1.67, 3.69 1.72 C3.69 1.77, 3.69 1.67, 3.69 1.72" stroke="#2f9e44" stroke-width="1" fill="none"></path></g></svg>