<svg version="1.1" xmlns="http://www.w3.org/2000/svg" viewBox="0 0 58.429419559399776 75.60972509764633" width="58.429419559399776" height="75.60972509764633" filter="invert(93%) hue-rotate(180deg)"><!-- svg-source:excalidraw --><metadata></metadata><defs><style class="style-fonts">
      </style></defs><rect x="0" y="0" width="58.429419559399776" height="75.60972509764633" fill="#ffffff"></rect><g stroke-linecap="round"><g transform="translate(11.473282120069598 10.120610803475756) rotate(0 0.5946312288133413 27.83552578142735)"><path d="M-0.01 1.12 C0.3 10.08, 0.65 45.41, 0.72 54.54 M-1.47 0.66 C-1.27 9.66, -1.21 46.04, -0.48 55.49" stroke="#be4bdb" stroke-width="4" fill="none"></path></g></g><mask></mask><g stroke-linecap="round"><g transform="translate(30.026328143974297 11.127450832724207) rotate(0 0.11493951808972724 26.774592571787252)"><path d="M-0.47 -1.13 C-0.56 7.65, -0.84 44.78, -0.55 53.77 M1.48 0.9 C1.78 9.8, 1.83 42.95, 1.75 51.76" stroke="#ffffff" stroke-width="4" fill="none"></path></g></g><mask></mask><g stroke-linecap="round"><g transform="translate(47.05053484771497 10.892981773924475) rotate(0 0.16923674634199415 26.87183976131928)"><path d="M-0.78 0.22 C-0.47 9.25, 1.24 44.11, 1.38 53.03 M1.01 -0.71 C1.3 8.56, 1.3 44.9, 0.98 54.2" stroke="#ffffff" stroke-width="4" fill="transparent"></path></g></g><mask></mask></svg>