<svg version="1.1" xmlns="http://www.w3.org/2000/svg" viewBox="0 0 30.973357042141288 51.246169204729995" width="92.92007112642386" height="153.73850761418998"><!-- svg-source:excalidraw --><metadata></metadata><defs><style class="style-fonts">
      </style></defs><rect x="0" y="0" width="30.973357042141288" height="51.246169204729995" fill="none"></rect><g stroke-linecap="round"><g transform="translate(20.973357042141288 10) rotate(0 -5.393683969864469 5.2076948674548476)"><path d="M0 0 C-1.8 1.74, -8.99 8.68, -10.79 10.42 M0 0 C-1.8 1.74, -8.99 8.68, -10.79 10.42" stroke="#ffffff" stroke-width="4" fill="none"></path></g></g><mask></mask><g stroke-linecap="round"><g transform="translate(10 20.601378837317498) rotate(0 5.021705765046136 5.114700316250492)"><path d="M0 0 C1.67 1.7, 8.37 8.52, 10.04 10.23 M0 0 C1.67 1.7, 8.37 8.52, 10.04 10.23" stroke="#ffffff" stroke-width="4" fill="none"></path></g></g><mask></mask><g stroke-linecap="round"><g transform="translate(20.415389734913333 31.01676857222901) rotate(0 -5.2076948674548476 5.114700316250492)"><path d="M0 0 C-1.74 1.7, -8.68 8.52, -10.42 10.23 M0 0 C-1.74 1.7, -8.68 8.52, -10.42 10.23" stroke="#ffffff" stroke-width="4" fill="none"></path></g></g><mask></mask></svg>