<svg version="1.1" xmlns="http://www.w3.org/2000/svg" viewBox="0 0 30.19736034219386 52.34517501380378" width="90.59208102658158" height="157.03552504141135"><!-- svg-source:excalidraw --><metadata></metadata><defs><style class="style-fonts">
      </style></defs><rect x="0" y="0" width="30.19736034219386" height="52.34517501380378" fill="none"></rect><g stroke-linecap="round"><g transform="translate(10.117598357957831 42.34517501380378) rotate(0 -0.058799178978915734 -5.4991726504486)"><path d="M0 0 C-0.02 -1.83, -0.1 -9.17, -0.12 -11 M0 0 C-0.02 -1.83, -0.1 -9.17, -0.12 -11" stroke="#ffffff" stroke-width="4" fill="none"></path></g></g><mask></mask><g stroke-linecap="round"><g transform="translate(10.101298653753474 30.766998262024572) rotate(0 4.8704500663989165 -4.7370130782783235)"><path d="M0 0 C1.62 -1.58, 8.12 -7.9, 9.74 -9.47 M0 0 C1.62 -1.58, 8.12 -7.9, 9.74 -9.47" stroke="#ffffff" stroke-width="4" fill="none"></path></g></g><mask></mask><g stroke-linecap="round"><g transform="translate(20.19736034219386 20.808396037761668) rotate(0 0 -5.404198018880834)"><path d="M0 0 C0 -1.8, 0 -9.01, 0 -10.81 M0 0 C0 -1.8, 0 -9.01, 0 -10.81" stroke="#ffffff" stroke-width="4" fill="none"></path></g></g><mask></mask></svg>