<svg version="1.1" xmlns="http://www.w3.org/2000/svg" viewBox="0 0 40.41167746385145 51.307130274661176" width="121.23503239155434" height="153.92139082398353"><!-- svg-source:excalidraw --><metadata></metadata><defs><style class="style-fonts">
      </style></defs><rect x="0" y="0" width="40.41167746385145" height="51.307130274661176" fill="none"></rect><g stroke-linecap="round"><g transform="translate(10 10) rotate(0 5.124181008975938 5.061676148533934)"><path d="M0 0 C1.71 1.69, 8.54 8.44, 10.25 10.12 M0 0 C1.71 1.69, 8.54 8.44, 10.25 10.12" stroke="#ffffff" stroke-width="4" fill="none"></path></g></g><mask></mask><g stroke-linecap="round"><g transform="translate(20.493261185323718 20.24580188075379) rotate(0 0 5.938804808747136)"><path d="M0 0 C0 1.98, 0 9.9, 0 11.88 M0 0 C0 1.98, 0 9.9, 0 11.88" stroke="#ffffff" stroke-width="4" fill="none"></path></g></g><mask></mask><g stroke-linecap="round"><g transform="translate(20.615710769010548 32.49076024930491) rotate(0 4.89798334742045 4.408185012678132)"><path d="M0 0 C1.63 1.47, 8.16 7.35, 9.8 8.82 M0 0 C1.63 1.47, 8.16 7.35, 9.8 8.82" stroke="#ffffff" stroke-width="4" fill="none"></path></g></g><mask></mask></svg>