<svg version="1.1" xmlns="http://www.w3.org/2000/svg" viewBox="0 0 41.26193555991995 50.57094457600488" width="123.78580667975984" height="151.71283372801463"><!-- svg-source:excalidraw --><metadata></metadata><defs><style class="style-fonts">
      </style></defs><rect x="0" y="0" width="41.26193555991995" height="50.57094457600488" fill="none"></rect><g stroke-linecap="round"><g transform="translate(31.15124288057814 40.57215122998423) rotate(358.75089405244614 0 -5.077812480674311)" fill-rule="evenodd"><path d="M0 0 C0 -1.69, 0 -9.34, 0 -10.16 C0 -10.97, 0 -5.78, 0 -4.9" stroke="none" stroke-width="0" fill="#b2f2bb" fill-rule="evenodd"></path><path d="M0 0 C0 -1.69, 0 -9.34, 0 -10.16 C0 -10.97, 0 -5.78, 0 -4.9 M0 0 C0 -1.69, 0 -9.34, 0 -10.16 C0 -10.97, 0 -5.78, 0 -4.9" stroke="#ffffff" stroke-width="4" fill="none"></path></g></g><mask></mask><g stroke-linecap="round"><g transform="translate(30.604832831242675 30.506870684777823) rotate(358.75089405244614 -10.190644357768178 -10.365741339860051)"><path d="M0 0 C-3.4 -3.46, -16.98 -17.28, -20.38 -20.73 M0 0 C-3.4 -3.46, -16.98 -17.28, -20.38 -20.73" stroke="#ffffff" stroke-width="4" fill="none"></path></g></g><mask></mask></svg>