<svg version="1.1" xmlns="http://www.w3.org/2000/svg" viewBox="0 0 68.41384750617726 66.16735943989534" width="68.41384750617726" height="66.16735943989534"><!-- svg-source:excalidraw --><metadata></metadata><defs><style class="style-fonts">
      </style></defs><rect x="0" y="0" width="68.41384750617726" height="66.16735943989534" fill="none"></rect><g stroke-linecap="round"><g transform="translate(20.896813228499013 27.30180639858918) rotate(0 5.91791591660558 -7.551031337313361)"><path d="M-0.34 -0.45 C1.72 -3.02, 10.23 -13.12, 12.29 -15.64 M0.49 0.5 C2.52 -1.99, 10.22 -12.6, 12.09 -15.22" stroke="#ffffff" stroke-width="4" fill="none"></path></g></g><mask></mask><g stroke-linecap="round"><g transform="translate(20.568040122021557 26.96620500582003) rotate(0 6.986428512659586 6.460326810812603)"><path d="M-0.45 0.45 C1.83 2.68, 11.1 10.92, 13.43 13.06 M0.31 0.21 C2.78 2.3, 12.01 10.13, 14.39 12.16" stroke="#ffffff" stroke-width="4" fill="none"></path></g></g><mask></mask><g stroke-linecap="round"><g transform="translate(34.376510594102 40.39026071659964) rotate(0 -5.671336086747033 7.886632730082738)"><path d="M0.45 -0.54 C-1.36 2.09, -9.3 12.65, -11.21 15.31 M0.02 0.37 C-1.82 3.09, -9.71 13.2, -11.57 15.78" stroke="#ffffff" stroke-width="4" fill="none"></path></g></g><mask></mask><g stroke-linecap="round"><g transform="translate(10.540460374439135 41.56486559129189) rotate(0 5.835722639986216 -0.251701044577203)"><path d="M-0.54 0.14 C1.4 0.04, 9.24 -0.08, 11.21 -0.13 M0.18 -0.27 C2.33 -0.56, 10.16 -0.77, 12.21 -0.9" stroke="#ffffff" stroke-width="4" fill="none"></path></g></g><mask></mask><g stroke-linecap="round"><g transform="translate(22.70506531412866 40.558061412983534) rotate(0 5.835722639986216 -7.047629248159183)"><path d="M0.14 -0.46 C2.07 -2.78, 10.07 -12.26, 12.05 -14.45 M-0.46 0.49 C1.4 -1.72, 9.76 -11.45, 11.81 -13.93" stroke="#ffffff" stroke-width="4" fill="none"></path></g></g><mask></mask><g stroke-linecap="round"><g transform="translate(35.03405680705691 25.79160013112687) rotate(0 6.246689023083945 -0.7551031337313816)"><path d="M-0.46 0.38 C1.65 0.16, 9.9 -0.81, 12.14 -1.16 M0.31 0.09 C2.64 -0.29, 11.09 -1.73, 13.19 -1.94" stroke="#ffffff" stroke-width="4" fill="none"></path></g></g><mask></mask><g stroke-linecap="round"><g transform="translate(45.883569320834795 10.353936063730998) rotate(0 5.753529363366397 6.628127507197178)"><path d="M0.38 -0.35 C2.33 2.02, 10.03 11.52, 11.86 13.77 M-0.1 0.65 C1.81 2.92, 9.78 10.89, 11.61 13.06" stroke="#ffffff" stroke-width="4" fill="none"></path></g></g><mask></mask><g stroke-linecap="round"><g transform="translate(57.39062804756759 23.945792470894048) rotate(0 -10.685125960538244 15.605464763780901)"><path d="M-0.77 0.77 C-3.98 5.77, -16.78 25.57, -20.26 30.84 M1.02 0.13 C-2.16 5.23, -16.69 27.09, -20.62 32.18" stroke="#ffffff" stroke-width="4" fill="none"></path></g></g><mask></mask></svg>