<svg version="1.1" xmlns="http://www.w3.org/2000/svg" viewBox="0 0 95.81868127087273 101.27619480952353" width="95.81868127087273" height="101.27619480952353" filter="invert(93%) hue-rotate(180deg)"><!-- svg-source:excalidraw --><metadata></metadata><defs><style class="style-fonts">
      </style></defs><rect x="0" y="0" width="95.81868127087273" height="101.27619480952353" fill="transparent"></rect><g stroke-linecap="round"><g transform="translate(11.422144937968369 37.63647431886284) rotate(0 0.28204384096079593 14.335065945823317)"><path d="M0.01 -0.23 C0.02 4.57, 0.14 24.19, 0.22 28.96 M-0.65 -0.83 C-0.48 3.81, 1.15 23.2, 1.28 28.15" stroke="white" stroke-width="4" fill="#ffffff"></path></g></g><mask></mask><g stroke-linecap="round"><g transform="translate(12.550320301811553 66.30660621050947) rotate(0 13.25606052515377 -12.600249047921125)"><path d="M-0.03 0.74 C4.36 -3.46, 22.1 -21.22, 26.69 -25.66 M-1.51 0.09 C2.71 -3.92, 21.04 -20.2, 25.83 -24.36" stroke="#ffffff" stroke-width="4" fill="none"></path></g></g><mask></mask><g stroke-linecap="round"><g transform="translate(39.62652903403978 40.19304658945521) rotate(0 -0.28204384096079593 -14.061147488259849)"><path d="M0.17 -0.5 C0.02 -5.28, -0.56 -24.07, -0.6 -28.6 M-0.4 0.43 C-0.65 -4.3, -1.08 -23.33, -1.05 -28.14" stroke="#ffffff" stroke-width="4" fill="#ffffff"></path></g></g><mask></mask><g stroke-linecap="round"><g transform="translate(37.93426598827591 11.70552700285134) rotate(0 -13.632118979768165 12.782861352963437)"><path d="M0.23 -1.15 C-4.42 2.97, -22.65 20.36, -27.08 24.88 M-1.11 0.86 C-5.97 5.11, -23.67 22.22, -27.93 26.06" stroke="#ffffff" stroke-width="4" fill="#ffffff"></path></g></g><mask></mask><g stroke-linecap="round"><g transform="translate(37.747518782967745 63.0195847197474) rotate(0 11.187739024775055 -9.678452167243677)"><path d="M-0.44 1.2 C2.93 -1.97, 17.22 -14.72, 21.19 -18.24 M1.53 0.78 C5.17 -2.77, 19.67 -16.49, 23.28 -19.78" stroke="#ffffff" stroke-width="4" fill="#ffffff"></path></g></g><mask></mask><g stroke-linecap="round"><g transform="translate(61.8139778562836 10.792465477639325) rotate(0 -0.28204384096079593 15.887270538683197)"><path d="M0.28 -0.21 C0.2 5.21, 0.02 26.76, -0.1 32.01 M-0.24 -0.79 C-0.38 4.5, -0.21 25.76, -0.29 31.17" stroke="#ffffff" stroke-width="4" fill="#ffffff"></path></g></g><mask></mask><g stroke-linecap="round"><g transform="translate(37.37146032835335 64.4804831600859) rotate(0 0.4700730682675385 13.239392115569217)"><path d="M0.51 0.13 C0.68 4.57, 0.59 22.31, 0.6 26.8 M0.11 -0.28 C0.49 3.99, 1.4 21.57, 1.66 25.99" stroke="#ffffff" stroke-width="4" fill="#ffffff"></path></g></g><mask></mask><g stroke-linecap="round"><g transform="translate(64.25835781127626 90.95926739122478) rotate(0 -0.6581022955747358 -13.422004420611529)"><path d="M0.1 -0.12 C-0.04 -4.71, -0.63 -22.57, -0.88 -27.02 M-0.52 -0.66 C-0.68 -4.93, -0.87 -22.16, -1.09 -26.42" stroke="#ffffff" stroke-width="4" fill="#ffffff"></path></g></g><mask></mask><g stroke-linecap="round"><g transform="translate(63.506240902047466 63.384809329832024) rotate(0 10.435622115546721 -9.313227557159053)"><path d="M0.9 -0.44 C4.13 -3.58, 17.17 -16.22, 20.53 -19.12 M-0.09 -1.71 C2.86 -4.67, 16 -14.83, 19.4 -17.85" stroke="#ffffff" stroke-width="4" fill="#ffffff"></path></g></g><mask></mask><g stroke-linecap="round"><g transform="translate(85.31763126967599 44.02790499534467) rotate(0 -0.09401461365359864 -15.704658233640657)"><path d="M0.5 0.48 C0.4 -4.67, -0.08 -25.98, -0.29 -31.23 M0.09 0.26 C-0.11 -5.04, -0.8 -26.74, -0.77 -32.1" stroke="#ffffff" stroke-width="4" fill="#ffffff"></path></g></g><mask></mask></svg>