<svg width="646" height="634" viewBox="0 0 646 634" fill="none" xmlns="http://www.w3.org/2000/svg">
<path d="M3 33L642 33.0001" stroke="#4D4D4D"/>
<path d="M2 1L641 1.00006" stroke="#4D4D4D"/>
<path d="M2 73L641 73.0001" stroke="#4D4D4D"/>
<path d="M3 112L641 112" stroke="#4D4D4D"/>
<path d="M3 152L641 152" stroke="#4D4D4D"/>
<path d="M2 192L641 192" stroke="#4D4D4D"/>
<path d="M0 232L641 232" stroke="#4D4D4D"/>
<path d="M5 272H641" stroke="#4D4D4D"/>
<path d="M2 313H641" stroke="#4D4D4D"/>
<path d="M0 353H645.5" stroke="#4D4D4D"/>
<path d="M1 393L641 393" stroke="#4D4D4D"/>
<path d="M1 432L641 432" stroke="#4D4D4D"/>
<path d="M3 472L641 472" stroke="#4D4D4D"/>
<path d="M0 512L641 512" stroke="#4D4D4D"/>
<path d="M2 552L641 552" stroke="#4D4D4D"/>
<path d="M1 592L641 592" stroke="#4D4D4D"/>
<path d="M0 632L641 632" stroke="#4D4D4D"/>
<path d="M2 632L2.00003 0.999509" stroke="#4D4D4D"/>
<path d="M42 632L42 0.999509" stroke="#4D4D4D"/>
<path d="M81 634L81 0.999512" stroke="#4D4D4D"/>
<path d="M121 634L121 0.999512" stroke="#4D4D4D"/>
<path d="M161 632L161 0.999509" stroke="#4D4D4D"/>
<path d="M201 632L201 0.999509" stroke="#4D4D4D"/>
<path d="M241 633L241 0.99951" stroke="#4D4D4D"/>
<path d="M282 632L282 0.999509" stroke="#4D4D4D"/>
<path d="M322 632L322 0.999509" stroke="#4D4D4D"/>
<path d="M362 632L362 0.999997" stroke="#4D4D4D"/>
<path d="M401 632L401 0.999753" stroke="#4D4D4D"/>
<path d="M441 632L441 -0.000489563" stroke="#4D4D4D"/>
<path d="M481 634L481 0.999512" stroke="#4D4D4D"/>
<path d="M521 632L521 0.99957" stroke="#4D4D4D"/>
<path d="M561 633L561 0.999571" stroke="#4D4D4D"/>
<path d="M601 632L601 0.999997" stroke="#4D4D4D"/>
<path d="M641 634L641 0.999573" stroke="#4D4D4D"/>
<path d="M263.321 381V370.091H264.642V375.503H264.77L269.67 370.091H271.396L266.815 375.013L271.396 381H269.798L266.006 375.929L264.642 377.463V381H263.321ZM281.757 370.091V381H280.478L274.534 372.435H274.427V381H273.106V370.091H274.385L280.35 378.678H280.457V370.091H281.757ZM293.605 375.545C293.605 376.696 293.397 377.69 292.981 378.528C292.566 379.366 291.996 380.013 291.272 380.467C290.547 380.922 289.72 381.149 288.789 381.149C287.859 381.149 287.032 380.922 286.307 380.467C285.583 380.013 285.013 379.366 284.597 378.528C284.182 377.69 283.974 376.696 283.974 375.545C283.974 374.395 284.182 373.401 284.597 372.562C285.013 371.724 285.583 371.078 286.307 370.624C287.032 370.169 287.859 369.942 288.789 369.942C289.72 369.942 290.547 370.169 291.272 370.624C291.996 371.078 292.566 371.724 292.981 372.562C293.397 373.401 293.605 374.395 293.605 375.545ZM292.326 375.545C292.326 374.601 292.168 373.804 291.852 373.154C291.54 372.504 291.115 372.012 290.579 371.678C290.046 371.344 289.45 371.178 288.789 371.178C288.129 371.178 287.53 371.344 286.994 371.678C286.462 372.012 286.037 372.504 285.721 373.154C285.409 373.804 285.252 374.601 285.252 375.545C285.252 376.49 285.409 377.287 285.721 377.937C286.037 378.587 286.462 379.079 286.994 379.413C287.53 379.746 288.129 379.913 288.789 379.913C289.45 379.913 290.046 379.746 290.579 379.413C291.115 379.079 291.54 378.587 291.852 377.937C292.168 377.287 292.326 376.49 292.326 375.545ZM297.807 381L294.824 370.091H296.167L298.447 378.976H298.553L300.876 370.091H302.367L304.69 378.976H304.796L307.076 370.091H308.418L305.435 381H304.072L301.664 372.307H301.579L299.171 381H297.807ZM313.686 371.263V370.091H321.868V371.263H318.438V381H317.117V371.263H313.686ZM323.907 381V370.091H325.228V374.949H331.045V370.091H332.366V381H331.045V376.121H325.228V381H323.907ZM334.073 370.091H335.586L338.611 375.183H338.739L341.765 370.091H343.278L339.336 376.504V381H338.015V376.504L334.073 370.091ZM350.952 372.818C350.888 372.278 350.629 371.859 350.174 371.561C349.72 371.263 349.162 371.114 348.502 371.114C348.019 371.114 347.596 371.192 347.234 371.348C346.875 371.504 346.595 371.719 346.392 371.993C346.193 372.266 346.094 372.577 346.094 372.925C346.094 373.216 346.163 373.466 346.302 373.676C346.444 373.882 346.625 374.054 346.845 374.192C347.065 374.327 347.296 374.439 347.538 374.528C347.779 374.613 348.001 374.683 348.203 374.736L349.311 375.034C349.595 375.109 349.911 375.212 350.259 375.343C350.611 375.474 350.947 375.654 351.266 375.881C351.589 376.105 351.856 376.392 352.065 376.744C352.275 377.096 352.38 377.527 352.38 378.038C352.38 378.628 352.225 379.161 351.916 379.636C351.611 380.112 351.163 380.49 350.574 380.771C349.988 381.051 349.276 381.192 348.438 381.192C347.657 381.192 346.98 381.066 346.408 380.814C345.84 380.561 345.393 380.21 345.066 379.759C344.743 379.308 344.56 378.784 344.517 378.188H345.881C345.916 378.599 346.055 378.94 346.296 379.21C346.541 379.477 346.85 379.675 347.223 379.807C347.6 379.935 348.005 379.999 348.438 379.999C348.942 379.999 349.395 379.917 349.796 379.754C350.197 379.587 350.515 379.356 350.75 379.061C350.984 378.763 351.101 378.415 351.101 378.017C351.101 377.655 351 377.36 350.797 377.133C350.595 376.906 350.329 376.721 349.998 376.579C349.668 376.437 349.311 376.312 348.928 376.206L347.585 375.822C346.733 375.577 346.059 375.228 345.561 374.773C345.064 374.319 344.816 373.724 344.816 372.989C344.816 372.378 344.981 371.845 345.311 371.391C345.645 370.933 346.092 370.577 346.653 370.325C347.218 370.07 347.848 369.942 348.544 369.942C349.247 369.942 349.872 370.068 350.419 370.32C350.966 370.569 351.399 370.909 351.719 371.343C352.042 371.776 352.213 372.268 352.23 372.818H350.952ZM354.551 381V370.091H361.135V371.263H355.873V374.949H360.794V376.121H355.873V379.828H361.221V381H354.551ZM363.516 381V370.091H364.837V379.828H369.908V381H363.516ZM371.954 381V370.091H378.495V371.263H373.275V374.949H378.005V376.121H373.275V381H371.954Z" fill="white"/>
<path d="M325.384 408.091H326.896L329.922 413.183H330.05L333.075 408.091H334.588L330.646 414.504V419H329.325V414.504L325.384 408.091ZM344.988 413.545C344.988 414.696 344.781 415.69 344.365 416.528C343.95 417.366 343.38 418.013 342.655 418.467C341.931 418.922 341.104 419.149 340.173 419.149C339.243 419.149 338.415 418.922 337.691 418.467C336.966 418.013 336.396 417.366 335.981 416.528C335.566 415.69 335.358 414.696 335.358 413.545C335.358 412.395 335.566 411.401 335.981 410.562C336.396 409.724 336.966 409.078 337.691 408.624C338.415 408.169 339.243 407.942 340.173 407.942C341.104 407.942 341.931 408.169 342.655 408.624C343.38 409.078 343.95 409.724 344.365 410.562C344.781 411.401 344.988 412.395 344.988 413.545ZM343.71 413.545C343.71 412.601 343.552 411.804 343.236 411.154C342.923 410.504 342.499 410.012 341.963 409.678C341.43 409.344 340.834 409.178 340.173 409.178C339.513 409.178 338.914 409.344 338.378 409.678C337.845 410.012 337.421 410.504 337.105 411.154C336.792 411.804 336.636 412.601 336.636 413.545C336.636 414.49 336.792 415.287 337.105 415.937C337.421 416.587 337.845 417.079 338.378 417.413C338.914 417.746 339.513 417.913 340.173 417.913C340.834 417.913 341.43 417.746 341.963 417.413C342.499 417.079 342.923 416.587 343.236 415.937C343.552 415.287 343.71 414.49 343.71 413.545ZM354.369 408.091H355.69V415.314C355.69 416.06 355.514 416.725 355.162 417.311C354.814 417.894 354.323 418.354 353.687 418.691C353.051 419.025 352.306 419.192 351.45 419.192C350.594 419.192 349.848 419.025 349.213 418.691C348.577 418.354 348.083 417.894 347.732 417.311C347.384 416.725 347.21 416.06 347.21 415.314V408.091H348.531V415.207C348.531 415.74 348.648 416.214 348.882 416.63C349.117 417.042 349.45 417.366 349.884 417.604C350.32 417.839 350.843 417.956 351.45 417.956C352.057 417.956 352.579 417.839 353.016 417.604C353.453 417.366 353.786 417.042 354.017 416.63C354.252 416.214 354.369 415.74 354.369 415.207V408.091Z" fill="white"/>
<path d="M290.321 408.091H291.898L295.605 417.146H295.733L299.44 408.091H301.017V419H299.781V410.712H299.675L296.266 419H295.072L291.663 410.712H291.557V419H290.321V408.091ZM303.666 419V408.091H310.25V409.263H304.987V412.949H309.909V414.121H304.987V417.828H310.335V419H303.666Z" fill="white"/>
<path d="M283.5 313H361" stroke="white" stroke-width="4"/>
<circle cx="282" cy="313" r="5" fill="white"/>
<mask id="path-40-outside-1_2_136" maskUnits="userSpaceOnUse" x="396" y="306" width="21" height="13" fill="black">
<rect fill="white" x="396" y="306" width="21" height="13"/>
<path d="M400.347 316.082V309.051H401.54V316.082H400.347ZM397.428 313.163V311.97H404.459V313.163H397.428ZM415.071 307.091V318H413.75V308.476H413.686L411.023 310.244V308.902L413.75 307.091H415.071Z"/>
</mask>
<path d="M400.347 316.082V309.051H401.54V316.082H400.347ZM397.428 313.163V311.97H404.459V313.163H397.428ZM415.071 307.091V318H413.75V308.476H413.686L411.023 310.244V308.902L413.75 307.091H415.071Z" fill="white"/>
<path d="M400.347 316.082H399.347V317.082H400.347V316.082ZM400.347 309.051V308.051H399.347V309.051H400.347ZM401.54 309.051H402.54V308.051H401.54V309.051ZM401.54 316.082V317.082H402.54V316.082H401.54ZM397.428 313.163H396.428V314.163H397.428V313.163ZM397.428 311.97V310.97H396.428V311.97H397.428ZM404.459 311.97H405.459V310.97H404.459V311.97ZM404.459 313.163V314.163H405.459V313.163H404.459ZM400.347 316.082H401.347V309.051H400.347H399.347V316.082H400.347ZM400.347 309.051V310.051H401.54V309.051V308.051H400.347V309.051ZM401.54 309.051H400.54V316.082H401.54H402.54V309.051H401.54ZM401.54 316.082V315.082H400.347V316.082V317.082H401.54V316.082ZM397.428 313.163H398.428V311.97H397.428H396.428V313.163H397.428ZM397.428 311.97V312.97H404.459V311.97V310.97H397.428V311.97ZM404.459 311.97H403.459V313.163H404.459H405.459V311.97H404.459ZM404.459 313.163V312.163H397.428V313.163V314.163H404.459V313.163ZM415.071 307.091H416.071V306.091H415.071V307.091ZM415.071 318V319H416.071V318H415.071ZM413.75 318H412.75V319H413.75V318ZM413.75 308.476H414.75V307.476H413.75V308.476ZM413.686 308.476V307.476H413.384L413.133 307.643L413.686 308.476ZM411.023 310.244H410.023V312.109L411.576 311.077L411.023 310.244ZM411.023 308.902L410.469 308.069L410.023 308.366V308.902H411.023ZM413.75 307.091V306.091H413.448L413.197 306.258L413.75 307.091ZM415.071 307.091H414.071V318H415.071H416.071V307.091H415.071ZM415.071 318V317H413.75V318V319H415.071V318ZM413.75 318H414.75V308.476H413.75H412.75V318H413.75ZM413.75 308.476V307.476H413.686V308.476V309.476H413.75V308.476ZM413.686 308.476L413.133 307.643L410.469 309.411L411.023 310.244L411.576 311.077L414.239 309.309L413.686 308.476ZM411.023 310.244H412.023V308.902H411.023H410.023V310.244H411.023ZM411.023 308.902L411.576 309.735L414.303 307.924L413.75 307.091L413.197 306.258L410.469 308.069L411.023 308.902ZM413.75 307.091V308.091H415.071V307.091V306.091H413.75V307.091Z" fill="white" mask="url(#path-40-outside-1_2_136)"/>
<circle cx="364" cy="313" r="5" fill="white"/>
</svg>
