<svg width="646" height="646" viewBox="0 0 646 646" fill="none" xmlns="http://www.w3.org/2000/svg">
<path d="M3 35L642 35.0001" stroke="#4D4D4D"/>
<path d="M4 3L641 2.99994" stroke="#4D4D4D"/>
<path d="M2 75L641 75.0001" stroke="#4D4D4D"/>
<path d="M3 114L641 114" stroke="#4D4D4D"/>
<path d="M3 154L641 154" stroke="#4D4D4D"/>
<path d="M2 194L641 194" stroke="#4D4D4D"/>
<path d="M0 234L641 234" stroke="#4D4D4D"/>
<path d="M5 274H641" stroke="#4D4D4D"/>
<path d="M2 315H641" stroke="#4D4D4D"/>
<path d="M0 355H645.5" stroke="#4D4D4D"/>
<path d="M1 395L641 395" stroke="#4D4D4D"/>
<path d="M1 434L641 434" stroke="#4D4D4D"/>
<path d="M3 474L641 474" stroke="#4D4D4D"/>
<path d="M0 514L641 514" stroke="#4D4D4D"/>
<path d="M2 554L641 554" stroke="#4D4D4D"/>
<path d="M1 594L641 594" stroke="#4D4D4D"/>
<path d="M0 634L641 634" stroke="#4D4D4D"/>
<path d="M2 634L2.00003 3" stroke="#4D4D4D"/>
<path d="M42 634L42 3" stroke="#4D4D4D"/>
<path d="M81 636L81 3" stroke="#4D4D4D"/>
<path d="M121 636L121 3" stroke="#4D4D4D"/>
<path d="M161 634L161 3" stroke="#4D4D4D"/>
<path d="M201 634L201 3" stroke="#4D4D4D"/>
<path d="M241 626L241 2.99992" stroke="#4D4D4D"/>
<path d="M282 629L282 2.99993" stroke="#4D4D4D"/>
<path d="M322 631L322 2.99993" stroke="#4D4D4D"/>
<path d="M362 636L362 2.99994" stroke="#4D4D4D"/>
<path d="M401 636L401 2.99994" stroke="#4D4D4D"/>
<path d="M441 634L441 2" stroke="#4D4D4D"/>
<path d="M481 636L481 3" stroke="#4D4D4D"/>
<path d="M521 634L521 3" stroke="#4D4D4D"/>
<path d="M561 635L561 3" stroke="#4D4D4D"/>
<path d="M601 645.5L601 0" stroke="#4D4D4D"/>
<path d="M601 635L601 3" stroke="#4D4D4D"/>
<path d="M641 636L641 3" stroke="#4D4D4D"/>
<circle cx="321.5" cy="314.5" r="5.5" fill="white"/>
<path d="M269.384 372.091H270.896L273.922 377.183H274.05L277.075 372.091H278.588L274.646 378.504V383H273.325V378.504L269.384 372.091ZM288.988 377.545C288.988 378.696 288.781 379.69 288.365 380.528C287.95 381.366 287.38 382.013 286.655 382.467C285.931 382.922 285.104 383.149 284.173 383.149C283.243 383.149 282.415 382.922 281.691 382.467C280.966 382.013 280.396 381.366 279.981 380.528C279.566 379.69 279.358 378.696 279.358 377.545C279.358 376.395 279.566 375.401 279.981 374.562C280.396 373.724 280.966 373.078 281.691 372.624C282.415 372.169 283.243 371.942 284.173 371.942C285.104 371.942 285.931 372.169 286.655 372.624C287.38 373.078 287.95 373.724 288.365 374.562C288.781 375.401 288.988 376.395 288.988 377.545ZM287.71 377.545C287.71 376.601 287.552 375.804 287.236 375.154C286.923 374.504 286.499 374.012 285.963 373.678C285.43 373.344 284.834 373.178 284.173 373.178C283.513 373.178 282.914 373.344 282.378 373.678C281.845 374.012 281.421 374.504 281.105 375.154C280.792 375.804 280.636 376.601 280.636 377.545C280.636 378.49 280.792 379.287 281.105 379.937C281.421 380.587 281.845 381.079 282.378 381.413C282.914 381.746 283.513 381.913 284.173 381.913C284.834 381.913 285.43 381.746 285.963 381.413C286.499 381.079 286.923 380.587 287.236 379.937C287.552 379.287 287.71 378.49 287.71 377.545ZM298.369 372.091H299.69V379.314C299.69 380.06 299.514 380.725 299.162 381.311C298.814 381.894 298.323 382.354 297.687 382.691C297.051 383.025 296.306 383.192 295.45 383.192C294.594 383.192 293.848 383.025 293.213 382.691C292.577 382.354 292.083 381.894 291.732 381.311C291.384 380.725 291.21 380.06 291.21 379.314V372.091H292.531V379.207C292.531 379.74 292.648 380.214 292.882 380.63C293.117 381.042 293.45 381.366 293.884 381.604C294.32 381.839 294.843 381.956 295.45 381.956C296.057 381.956 296.579 381.839 297.016 381.604C297.453 381.366 297.786 381.042 298.017 380.63C298.252 380.214 298.369 379.74 298.369 379.207V372.091ZM306.994 383H305.609L309.615 372.091H310.978L314.984 383H313.599L310.339 373.817H310.254L306.994 383ZM307.505 378.739H313.088V379.911H307.505V378.739ZM316.683 383V372.091H320.369C321.222 372.091 321.921 372.237 322.468 372.528C323.015 372.815 323.42 373.211 323.683 373.716C323.945 374.22 324.077 374.793 324.077 375.436C324.077 376.079 323.945 376.649 323.683 377.146C323.42 377.643 323.017 378.034 322.473 378.318C321.93 378.598 321.236 378.739 320.391 378.739H317.408V377.545H320.348C320.93 377.545 321.399 377.46 321.754 377.29C322.113 377.119 322.372 376.878 322.532 376.565C322.695 376.249 322.777 375.873 322.777 375.436C322.777 374.999 322.695 374.618 322.532 374.291C322.369 373.964 322.108 373.712 321.749 373.534C321.39 373.353 320.916 373.263 320.327 373.263H318.004V383H316.683ZM321.818 378.099L324.503 383H322.969L320.327 378.099H321.818ZM326.278 383V372.091H332.862V373.263H327.599V376.949H332.521V378.121H327.599V381.828H332.947V383H326.278ZM339.462 383V372.091H340.783V376.949H346.599V372.091H347.92V383H346.599V378.121H340.783V383H339.462ZM350.565 383V372.091H357.149V373.263H351.886V376.949H356.808V378.121H351.886V381.828H357.234V383H350.565ZM359.53 383V372.091H363.216C364.068 372.091 364.768 372.237 365.315 372.528C365.862 372.815 366.267 373.211 366.529 373.716C366.792 374.22 366.923 374.793 366.923 375.436C366.923 376.079 366.792 376.649 366.529 377.146C366.267 377.643 365.863 378.034 365.32 378.318C364.777 378.598 364.083 378.739 363.237 378.739H360.254V377.545H363.195C363.777 377.545 364.246 377.46 364.601 377.29C364.96 377.119 365.219 376.878 365.379 376.565C365.542 376.249 365.624 375.873 365.624 375.436C365.624 374.999 365.542 374.618 365.379 374.291C365.215 373.964 364.954 373.712 364.596 373.534C364.237 373.353 363.763 373.263 363.173 373.263H360.851V383H359.53ZM364.665 378.099L367.35 383H365.816L363.173 378.099H364.665ZM369.125 383V372.091H375.709V373.263H370.446V376.949H375.368V378.121H370.446V381.828H375.794V383H369.125Z" fill="white"/>
</svg>
