<svg version="1.1" xmlns="http://www.w3.org/2000/svg" viewBox="0 0 49.90051188956204 64.03636282809111" width="149.70153566868612" height="192.10908848427334"><!-- svg-source:excalidraw --><metadata></metadata><defs><style class="style-fonts">
      </style></defs><rect x="0" y="0" width="49.90051188956204" height="64.03636282809111" fill="none"></rect><g stroke-linecap="round"><g transform="translate(10 11.61215496373643) rotate(0 0 19.482313464214258)"><path d="M0 0 C0 6.49, 0 32.47, 0 38.96 M0 0 C0 6.49, 0 32.47, 0 38.96" stroke="#ffffff" stroke-width="1" fill="none"></path></g></g><mask></mask><g stroke-linecap="round"><g transform="translate(19.312357569655433 10) rotate(0 0 20.883440778357453)"><path d="M0 0 C0 6.96, 0 34.81, 0 41.77 M0 0 C0 6.96, 0 34.81, 0 41.77" stroke="#ffffff" stroke-width="1" fill="none"></path></g></g><mask></mask><g stroke-linecap="round"><g transform="translate(28.888668101892108 10.62741779744374) rotate(0 0.3085556923488184 21.430795269668124)"><path d="M0 0 C0.1 7.14, 0.51 35.72, 0.62 42.86 M0 0 C0.1 7.14, 0.51 35.72, 0.62 42.86" stroke="#ffffff" stroke-width="1" fill="none"></path></g></g><mask></mask><g stroke-linecap="round"><g transform="translate(38.92890547019488 12.269481271376208) rotate(0 0.48580320968358137 20.883440778357453)"><path d="M0 0 C0.16 6.96, 0.81 34.81, 0.97 41.77 M0 0 C0.16 6.96, 0.81 34.81, 0.97 41.77" stroke="#ffffff" stroke-width="1" fill="none"></path></g></g><mask></mask></svg>