<svg version="1.1" xmlns="http://www.w3.org/2000/svg" viewBox="0 0 59.17140417150222 45.37836954501108" width="177.51421251450665" height="136.13510863503325"><!-- svg-source:excalidraw --><metadata></metadata><defs><style class="style-fonts">
      </style></defs><rect x="0" y="0" width="59.17140417150222" height="45.37836954501108" fill="none"></rect><g stroke-linecap="round"><g transform="translate(10 10.53435410011025) rotate(0 18.63424109560765 -0.2671770500551247)"><path d="M0 0 C6.21 -0.09, 31.06 -0.45, 37.27 -0.53 M0 0 C6.21 -0.09, 31.06 -0.45, 37.27 -0.53" stroke="#ffffff" stroke-width="1" fill="none"></path></g></g><mask></mask><g stroke-linecap="round"><g transform="translate(11.24555104036881 19.853350673972272) rotate(0 18.63424109560765 -0.2671770500551247)"><path d="M0 0 C6.21 -0.09, 31.06 -0.45, 37.27 -0.53 M0 0 C6.21 -0.09, 31.06 -0.45, 37.27 -0.53" stroke="#ffffff" stroke-width="1" fill="none"></path></g></g><mask></mask><g stroke-linecap="round"><g transform="translate(11.90292198028692 28.07166004472947) rotate(0 18.63424109560765 -0.2671770500551247)"><path d="M0 0 C6.21 -0.09, 31.06 -0.45, 37.27 -0.53 M0 0 C6.21 -0.09, 31.06 -0.45, 37.27 -0.53" stroke="#ffffff" stroke-width="1" fill="none"></path></g></g><mask></mask><g stroke-linecap="round"><g transform="translate(11.637588607511134 35.37836954501108) rotate(0 18.63424109560765 -0.2671770500551247)"><path d="M0 0 C6.21 -0.09, 31.06 -0.45, 37.27 -0.53 M0 0 C6.21 -0.09, 31.06 -0.45, 37.27 -0.53" stroke="#ffffff" stroke-width="1" fill="none"></path></g></g><mask></mask></svg>